<svg xmlns="http://www.w3.org/2000/svg" viewBox="420 110 380 700">
  <g transform="translate(600 410)">
    <!-- orejas -->
    <path d="M -150 -160 L -170 -290 L -40 -200 Z" fill="#aaa3a0"/>
    <path d="M 150 -160 L 170 -290 L 40 -200 Z" fill="#aaa3a0"/>
    <!-- cabeza -->
    <ellipse cx="0" cy="-90" rx="180" ry="165" fill="#f5ede0"/>
    <path d="M -130 -150 Q -120 -260 0 -270 Q 90 -260 100 -180 Q 60 -120 -40 -130 Q -120 -135 -130 -150 Z" fill="#aaa3a0"/>
    <path d="M 110 -180 Q 175 -210 195 -120 Q 185 -60 120 -70 Z" fill="#c9b89c"/>
    <!-- ojos -->
    <ellipse cx="-70" cy="-90" rx="34" ry="26" fill="#d6d486"/>
    <ellipse cx="70" cy="-90" rx="34" ry="26" fill="#d6d486"/>
    <ellipse cx="-70" cy="-88" rx="8" ry="20" fill="#2a1f17"/>
    <ellipse cx="70" cy="-88" rx="8" ry="20" fill="#2a1f17"/>
    <!-- nariz -->
    <path d="M -16 -30 Q 0 -36 16 -30 Q 18 -8 0 4 Q -18 -8 -16 -30 Z" fill="#c47e78"/>
    <!-- cuerpo -->
    <ellipse cx="0" cy="220" rx="180" ry="170" fill="#aaa3a0"/>
    <ellipse cx="0" cy="240" rx="120" ry="150" fill="#faf4e8"/>
  </g>
</svg>
